<?xml version="1.0" encoding="UTF-8"?>
<svg version="1.1" xmlns="http://www.w3.org/2000/svg" width="1536" height="1024">
<path d="M0 0 C506.88 0 1013.76 0 1536 0 C1536 337.92 1536 675.84 1536 1024 C1029.12 1024 522.24 1024 0 1024 C0 686.08 0 348.16 0 0 Z " fill="#F9F6F0" transform="translate(0,0)"/>
<path d="M0 0 C1.13252606 -0.00424107 1.13252606 -0.00424107 2.28793144 -0.00856781 C6.3071107 -0.0235066 10.32625476 -0.03276175 14.34545898 -0.03710938 C17.59232167 -0.04143746 20.83891011 -0.05511226 24.08569336 -0.078125 C52.64760964 -0.27611974 81.01158555 0.70934793 109.08984375 6.453125 C110.64137189 6.75880339 112.19296877 7.06413298 113.74462891 7.36914062 C127.37976502 10.08863726 140.84642446 13.37995563 154.21484375 17.203125 C155.26430176 17.50250977 156.31375977 17.80189453 157.39501953 18.11035156 C168.271377 21.24566657 178.86761109 24.57884669 189.21484375 29.203125 C190.79610135 29.81270371 192.3794546 30.41687376 193.96484375 31.015625 C204.23815749 35.10179005 214.05357468 40.47808076 223.703125 45.84375 C226.19449648 47.19211279 228.72135438 48.42009054 231.27734375 49.640625 C235.62415171 51.79358944 239.46849058 54.35068753 243.390625 57.1953125 C245.4918905 58.68915823 247.59693164 60.12119434 249.7578125 61.5234375 C258.07526508 66.9246448 265.74677808 72.66682916 273.21484375 79.203125 C276.60380552 77.93686234 279.55616278 76.48840729 282.5859375 74.515625 C283.40094727 73.98654541 284.21595703 73.45746582 285.05566406 72.91235352 C285.91256836 72.34830811 286.76947266 71.7842627 287.65234375 71.203125 C288.53889648 70.62296631 289.42544922 70.04280762 290.33886719 69.44506836 C300.56039811 62.71789625 310.47276191 55.60710719 320.21484375 48.203125 C318.91415869 45.23554258 317.67835204 43.51638 315.08984375 41.578125 C314.14109375 40.794375 313.19234375 40.010625 312.21484375 39.203125 C312.21484375 38.543125 312.21484375 37.883125 312.21484375 37.203125 C323.3223738 34.40618245 334.4276085 31.85866505 345.71484375 29.890625 C346.68687744 29.71950195 347.65891113 29.54837891 348.66040039 29.37207031 C352.91243282 28.65185635 356.89129719 28.11728706 361.21484375 28.203125 C360.58622082 32.89973312 359.3262706 37.16464729 357.65234375 41.578125 C357.39420898 42.26422852 357.13607422 42.95033203 356.87011719 43.65722656 C353.85769384 51.44138514 350.06796067 58.80930605 346.21484375 66.203125 C345.54478655 67.53475767 344.87610689 68.86710356 344.21484375 70.203125 C343.55484375 70.203125 342.89484375 70.203125 342.21484375 70.203125 C341.88484375 71.523125 341.55484375 72.843125 341.21484375 74.203125 C338.69314387 72.94227506 338.44366542 71.91531327 337.27734375 69.390625 C335.84025923 66.39266216 334.3555129 63.77192799 332.21484375 61.203125 C327.10034397 62.61860583 323.37311699 64.89311535 319.08984375 67.890625 C303.92841875 78.24005965 303.92841875 78.24005965 295.89453125 81.5859375 C290.87326312 83.68406139 286.34040965 86.61326469 281.70703125 89.44335938 C278.01928907 91.6607153 274.29450073 93.75767932 270.42578125 95.64453125 C269.3591626 96.16768921 269.3591626 96.16768921 268.27099609 96.70141602 C266.21484375 97.203125 266.21484375 97.203125 264.11279297 96.41772461 C261.60860311 94.81515907 259.29182656 93.05382478 256.96484375 91.203125 C256.0728125 90.501875 255.18078125 89.800625 254.26171875 89.078125 C253.58625 88.459375 252.91078125 87.840625 252.21484375 87.203125 C252.21484375 86.543125 252.21484375 85.883125 252.21484375 85.203125 C251.64209717 84.93145508 251.06935059 84.65978516 250.47924805 84.37988281 C248.18016739 83.18510451 246.11531827 81.84745333 243.984375 80.375 C243.18064453 79.82199219 242.37691406 79.26898438 241.54882812 78.69921875 C240.71673828 78.12300781 239.88464844 77.54679687 239.02734375 76.953125 C235.75959167 74.69860929 232.4883689 72.44924863 229.21484375 70.203125 C228.4468042 69.67098389 227.67876465 69.13884277 226.88745117 68.59057617 C222.05990707 65.29403388 217.18050645 62.52008526 211.90234375 60.015625 C207.6933537 58.00365688 203.93661484 56.03647331 200.21484375 53.203125 C198.6538871 52.50494201 197.06804009 51.86044148 195.46484375 51.265625 C192.33720958 50.10032904 189.37956363 48.79561231 186.41796875 47.265625 C182.29512861 45.17461749 178.08889988 43.618562 173.71484375 42.140625 C172.28748556 41.65053936 170.86040088 41.1596564 169.43359375 40.66796875 C168.73508301 40.42820312 168.03657227 40.1884375 167.31689453 39.94140625 C165.21568133 39.20341918 163.13281523 38.42705193 161.05078125 37.63671875 C155.52233692 35.5469451 149.8807924 33.87837909 144.21484375 32.203125 C143.27632568 31.92082031 143.27632568 31.92082031 142.31884766 31.6328125 C118.39773957 24.4797276 93.97655526 20.15478682 69.21484375 17.203125 C68.02681152 17.05214355 66.8387793 16.90116211 65.61474609 16.74560547 C-13.0320976 6.87615588 -98.61892459 16.65147185 -173.87402344 41.25927734 C-176.68311769 42.17004205 -179.50039251 43.04628504 -182.32421875 43.91015625 C-200.20763561 49.41088857 -217.83153061 55.78238375 -235.06958008 63.06103516 C-237.81903306 64.21737257 -240.58117995 65.33822628 -243.34765625 66.453125 C-251.97590672 70.03574969 -260.36729902 74.15689224 -268.78515625 78.203125 C-268.78515625 77.543125 -268.78515625 76.883125 -268.78515625 76.203125 C-231.16054599 55.53480571 -192.05122123 37.37743465 -150.78515625 25.203125 C-149.86847168 24.93145508 -148.95178711 24.65978516 -148.00732422 24.37988281 C-107.81002457 12.56388422 -67.41183517 5.31732918 -25.78515625 1.203125 C-25.07714371 1.11650604 -24.36913116 1.02988708 -23.6396637 0.94064331 C-15.77292228 0.02728955 -7.90826223 0.02032757 0 0 Z " fill="#857D60" transform="translate(784.78515625,345.796875)"/>
<path d="M0 0 C0.50017563 37.70170022 -2.81139264 69.94486503 -30.125 98.5 C-37.44539172 105.66830602 -52.38081551 120 -63 120 C-64.10816359 91.74182841 -49.60106479 63.50886631 -31 43 C-50.14174366 54.13207787 -61.06208849 75.04943709 -67.2109375 95.6796875 C-69.43674978 105.04572928 -70.36566936 114.06525281 -70.625 123.6875 C-70.66367187 124.87794922 -70.70234375 126.06839844 -70.7421875 127.29492188 C-70.83540995 130.19647053 -70.92121348 133.09802966 -71 136 C-74.79194398 132.20805602 -74.97492239 126.11990634 -76 121 C-76.21011719 120.00226563 -76.42023438 119.00453125 -76.63671875 117.9765625 C-79.6628098 100.93602141 -80.334399 81.2914118 -74 65 C-73.62617188 64.03707031 -73.25234375 63.07414062 -72.8671875 62.08203125 C-71.68844627 59.31472154 -70.39451461 56.66472708 -69 54 C-68.48566406 53.01257813 -67.97132813 52.02515625 -67.44140625 51.0078125 C-63.45220648 43.76644755 -58.75216146 37.90841712 -53 32 C-52.31292969 31.25105469 -51.62585938 30.50210937 -50.91796875 29.73046875 C-39.60101863 17.74164033 -25.42704858 9.77316726 -10.5 3.125 C-9.80471191 2.81409424 -9.10942383 2.50318848 -8.39306641 2.18286133 C-5.4319544 0.89733556 -3.26313598 0 0 0 Z " fill="#195157" transform="translate(427,422)"/>
<path d="M0 0 C14.52 0 29.04 0 44 0 C44 1.65 44 3.3 44 5 C43.37351562 5.12117188 42.74703125 5.24234375 42.1015625 5.3671875 C41.28429687 5.53476562 40.46703125 5.70234375 39.625 5.875 C38.40683594 6.11863281 38.40683594 6.11863281 37.1640625 6.3671875 C34.81326077 6.86658932 34.81326077 6.86658932 33 9 C32.67781324 12.12736032 32.67781324 12.12736032 32.70947266 15.86132812 C32.70275543 16.56732147 32.69603821 17.27331482 32.68911743 18.0007019 C32.67006104 20.34428893 32.66620809 22.68759021 32.6640625 25.03125 C32.65763495 26.66353472 32.65090662 28.29581829 32.64389038 29.92810059 C32.63189509 33.35801864 32.62821137 36.78783588 32.62939453 40.21777344 C32.62959673 44.59115461 32.60240837 48.96387867 32.56785011 53.3371048 C32.54548289 56.71397806 32.54156014 60.09069639 32.54261398 63.46763611 C32.5402684 65.07822411 32.53150418 66.68881707 32.51594925 68.29933167 C32.42633314 78.54584764 32.65206861 87.62229539 39.375 95.9375 C46.84590864 101.80749965 53.79647555 101.84794376 63 101 C69.84254687 99.43523153 74.16466803 96.87285207 78 91 C80.89660699 85.20678603 81.12488646 79.18619084 81.11352539 72.80126953 C81.11367142 72.10788986 81.11381744 71.41451019 81.1139679 70.70011902 C81.11327596 68.42765074 81.1055175 66.15526631 81.09765625 63.8828125 C81.09578951 62.29955083 81.09436682 60.71628858 81.09336853 59.13302612 C81.08956349 54.98037094 81.07975051 50.82775114 81.06866455 46.67510986 C81.05840703 42.43184894 81.05386163 38.18858227 81.04882812 33.9453125 C81.03812633 25.63019216 81.02107424 17.31510049 81 9 C76.92360014 6.87045218 73.58682392 5.54605047 69 5 C69 3.35 69 1.7 69 0 C80.22 0 91.44 0 103 0 C103 1.65 103 3.3 103 5 C102.37351562 5.12117188 101.74703125 5.24234375 101.1015625 5.3671875 C99.87566406 5.61855469 99.87566406 5.61855469 98.625 5.875 C97.81289063 6.03742188 97.00078125 6.19984375 96.1640625 6.3671875 C93.81326077 6.86658932 93.81326077 6.86658932 92 9 C91.6880218 11.89577144 91.6880218 11.89577144 91.72875977 15.33886719 C91.72091965 16.31506767 91.72091965 16.31506767 91.71292114 17.31098938 C91.70266547 18.72799005 91.69689801 20.14502856 91.69503975 21.56206512 C91.69137226 23.81777847 91.67462759 26.07305352 91.65428162 28.32867432 C91.59896195 34.74360913 91.5684555 41.15861295 91.54370117 47.57373047 C91.52764302 51.49898514 91.497219 55.42393985 91.45893669 59.34903717 C91.44742403 60.83345552 91.44135757 62.31792806 91.44125557 63.80239105 C91.43991093 78.18806728 90.71091793 91.90860519 80.30078125 102.7734375 C69.73532966 112.50789852 56.17681215 111.62399324 42.66259766 111.17919922 C34.31676783 110.61750482 26.91254245 106.87222966 21 101 C14.75807034 92.89504542 12.89469491 84.89666046 12.84228516 74.75708008 C12.83720444 74.05876572 12.83212372 73.36045135 12.82688904 72.64097595 C12.8162447 71.13506609 12.80760161 69.62914099 12.80076981 68.123209 C12.78891597 65.74007182 12.76945134 63.35711062 12.74765015 60.9740448 C12.68621982 54.20223809 12.63186907 47.43045606 12.59863281 40.65844727 C12.57772042 36.50815911 12.54245915 32.35820352 12.49787521 28.20810509 C12.48370282 26.6280781 12.47498997 25.04799242 12.47182083 23.46790504 C12.46692649 21.26315894 12.44381332 19.05930239 12.41650391 16.85473633 C12.40841705 15.60042313 12.4003302 14.34610992 12.39199829 13.05378723 C12.25442679 10.02703215 12.25442679 10.02703215 10.61532593 8.11723328 C8.55413017 6.69161604 6.76852837 6.27522998 4.3125 5.8125 C3.10013672 5.57466797 3.10013672 5.57466797 1.86328125 5.33203125 C1.24839844 5.22246094 0.63351562 5.11289062 0 5 C0 3.35 0 1.7 0 0 Z " fill="#1A5258" transform="translate(448,438)"/>
<path d="M0 0 C4.50385031 3.52559465 6.39023079 6.95118724 7.81640625 12.421875 C8.13598887 16.29909339 8.1648786 20.16966593 8.1953125 24.05859375 C8.21230698 25.17498734 8.22930145 26.29138092 8.24681091 27.44160461 C8.29980929 30.99747107 8.3401882 34.55332664 8.37890625 38.109375 C8.42285067 41.67607687 8.46953903 45.24268919 8.52171326 48.8092804 C8.55364234 51.02616124 8.58054111 53.24312133 8.60194397 55.46012878 C8.61543381 56.46159439 8.62892365 57.46306 8.64282227 58.49487305 C8.65233414 59.3761235 8.66184601 60.25737396 8.67164612 61.16532898 C8.73097265 63.59031545 8.73097265 63.59031545 9.81640625 66.421875 C12.78640625 66.421875 15.75640625 66.421875 18.81640625 66.421875 C18.81640625 68.671875 18.81640625 68.671875 17.81640625 71.421875 C11.36786251 76.00214906 4.50809158 76.78814573 -3.18359375 76.421875 C-6.60398035 75.25174274 -7.09899857 74.54876777 -9.18359375 71.421875 C-9.57747163 69.09799553 -9.9184546 66.76393751 -10.18359375 64.421875 C-10.81265625 64.95296875 -11.44171875 65.4840625 -12.08984375 66.03125 C-21.1243427 73.48743287 -26.80089297 77.25362663 -38.83203125 76.8671875 C-43.59722681 76.23404963 -46.79831947 74.84125783 -50.18359375 71.421875 C-54.65096861 65.43480664 -55.80564497 59.70353341 -55.18359375 52.421875 C-53.38003284 45.56834354 -48.94757927 41.40411571 -43.18359375 37.421875 C-36.69384354 34.04190037 -29.77172894 31.84960722 -22.80859375 29.671875 C-21.33326172 29.19814453 -21.33326172 29.19814453 -19.828125 28.71484375 C-12.57202043 26.421875 -12.57202043 26.421875 -9.18359375 26.421875 C-9.16317193 16.03906114 -9.16317193 16.03906114 -14.18359375 7.421875 C-20.34480816 3.79763123 -26.29223825 3.51113222 -33.12109375 5.109375 C-35.91957663 6.89022774 -36.17501715 8.26166832 -37.18359375 11.421875 C-37.87795284 13.03213966 -38.58730973 14.63598951 -39.30859375 16.234375 C-39.83839844 17.41966797 -39.83839844 17.41966797 -40.37890625 18.62890625 C-40.64445312 19.22058594 -40.91 19.81226563 -41.18359375 20.421875 C-44.15359375 20.421875 -47.12359375 20.421875 -50.18359375 20.421875 C-50.51359375 16.131875 -50.84359375 11.841875 -51.18359375 7.421875 C-36.29367916 -1.61076771 -16.71611286 -10.34945422 0 0 Z " fill="#174F56" transform="translate(1076.18359375,472.578125)"/>
<path d="M0 0 C5.9301593 1.13919907 11.31325819 2.69639046 16.8125 5.1875 C17.84552246 5.6520459 17.84552246 5.6520459 18.89941406 6.12597656 C37.35916839 14.5806297 52.8293044 26.69513049 60.90234375 45.93359375 C65.67657241 59.27085176 67.63898833 71.8824852 65 86 C62.80881929 83.80881929 61.75543434 81.57185237 60.43847656 78.79589844 C52.74767802 62.59645059 42.35991434 47.77449094 27 38 C27.78375 38.86625 28.5675 39.7325 29.375 40.625 C41.50079798 54.8956915 56.95672547 76.32733246 56 96 C50.87092194 95.49730322 47.12228826 93.67506024 42.8125 91 C42.15685059 90.59773193 41.50120117 90.19546387 40.82568359 89.78100586 C27.4710924 81.41606005 16.4062882 71.01131131 9 57 C8.55914062 56.21753906 8.11828125 55.43507813 7.6640625 54.62890625 C-1.04048392 37.72098426 -0.56751529 18.50099852 0 0 Z " fill="#185056" transform="translate(281,440)"/>
<path d="M0 0 C4.14092302 3.59865929 6.69838157 8.0842105 7.26501465 13.56193542 C7.27230591 14.46857437 7.27959717 15.37521332 7.28710938 16.30932617 C7.30052368 17.34357224 7.31393799 18.3778183 7.32775879 19.44340515 C7.33303589 20.54876114 7.33831299 21.65411713 7.34375 22.79296875 C7.3583728 23.935345 7.37299561 25.07772125 7.38806152 26.25471497 C7.45032697 31.13869196 7.49006158 36.02279324 7.53173828 40.90698242 C7.56536251 44.47328222 7.61048695 48.0393075 7.65625 51.60546875 C7.6615271 52.71689743 7.6668042 53.82832611 7.67224121 54.97343445 C7.68565552 55.99822403 7.69906982 57.02301361 7.71289062 58.07885742 C7.72018188 58.98310959 7.72747314 59.88736176 7.73498535 60.8190155 C7.79794073 63.20904036 7.79794073 63.20904036 10 65 C12.65537372 65.56520003 15.29144713 65.73788198 18 66 C18 67.32 18 68.64 18 70 C4.62240371 77.60553698 4.62240371 77.60553698 -3 76 C-7.54054054 73.91891892 -7.54054054 73.91891892 -9 71 C-9.13415472 68.3276379 -9.04318541 65.67749512 -9 63 C-9.76183594 63.60328125 -10.52367187 64.2065625 -11.30859375 64.828125 C-19.92252201 71.49558507 -27.03894799 76.84619469 -38.3515625 76.38671875 C-43.81669556 75.58871259 -47.59695026 73.47689447 -51.375 69.5 C-55.41868469 63.27894663 -55.58184063 58.36998133 -55 51 C-53.28055563 44.00759289 -48.84584694 40.72940793 -43 37 C-36.40234289 33.38614818 -29.13047023 31.30106808 -22 29 C-19.61183993 28.1758919 -17.22429419 27.35040467 -14.83984375 26.515625 C-13 26 -13 26 -10 26 C-10.03320005 23.60054192 -10.10051662 21.21011893 -10.1875 18.8125 C-10.19330078 18.13896484 -10.19910156 17.46542969 -10.20507812 16.77148438 C-10.3768033 12.85996643 -10.88453749 11.1392287 -13.41015625 8.09375 C-18.01726798 4.36914685 -21.95523304 3.49816246 -27.796875 3.7109375 C-31.62261929 4.21289686 -33.22533446 5.28699369 -36 8 C-38.25220814 11.89347246 -40.17758152 15.8898647 -42 20 C-48.15234375 20.09765625 -48.15234375 20.09765625 -50 20 C-51.80035245 18.19964755 -51.46274877 15.75528244 -51.625 13.3125 C-51.56500515 7.69298222 -51.56500515 7.69298222 -49.37890625 5.01171875 C-43.85065657 1.19811335 -37.38562426 -1.03906027 -31 -3 C-30.40058594 -3.19335938 -29.80117188 -3.38671875 -29.18359375 -3.5859375 C-19.79104257 -5.36699372 -8.19437036 -5.32634073 0 0 Z " fill="#184F56" transform="translate(936,473)"/>
<path d="M0 0 C1.2684375 -0.00773437 2.536875 -0.01546875 3.84375 -0.0234375 C9.28883682 0.56993735 13.22799527 2.47851084 16.75 6.6875 C17.22953125 7.24050781 17.7090625 7.79351562 18.203125 8.36328125 C22.27915104 14.68603249 21.76453058 21.42440166 21.73828125 28.66796875 C21.75368888 31.09570879 21.7699916 33.52344329 21.78710938 35.95117188 C21.80362146 39.76989992 21.81245263 43.58822128 21.80541992 47.40698242 C21.80281234 51.09861302 21.83081832 54.78900328 21.86328125 58.48046875 C21.84797112 60.2007856 21.84797112 60.2007856 21.83235168 61.95585632 C21.8455394 63.01738419 21.85872711 64.07891205 21.87231445 65.17260742 C21.87294388 66.10715256 21.8735733 67.04169769 21.8742218 68.00456238 C22.29919609 70.61208459 22.29919609 70.61208459 24.8946991 72.15718079 C27.1301325 73.20210951 29.08331935 73.92746655 31.5 74.375 C31.5 75.695 31.5 77.015 31.5 78.375 C19.29 78.375 7.08 78.375 -5.5 78.375 C-5.5 76.725 -5.5 75.075 -5.5 73.375 C-4.365625 73.065625 -3.23125 72.75625 -2.0625 72.4375 C1.28775099 71.74575469 1.28775099 71.74575469 2.5 70.375 C2.61944501 68.77562588 2.67011937 67.17104957 2.69287109 65.56738281 C2.70893402 64.5425177 2.72499695 63.51765259 2.74154663 62.46173096 C2.78585815 57.7602999 2.82707504 53.05901287 2.85009766 48.35742188 C2.86665208 45.87620664 2.89393493 43.39503899 2.93212891 40.9140625 C2.98684839 37.34349733 3.00876676 33.77405283 3.0234375 30.203125 C3.04610687 29.09463196 3.06877625 27.98613892 3.09213257 26.84405518 C3.23315303 20.44967235 3.23315303 20.44967235 0.10327148 15.1706543 C-4.43687296 12.03900632 -8.40239353 12.95823113 -13.6484375 13.6640625 C-18.449391 14.60217985 -22.51313199 16.31203093 -25.5 20.375 C-26.3655204 24.15933452 -26.24618238 27.86416515 -26.15625 31.73046875 C-26.15250366 32.82845291 -26.14875732 33.92643707 -26.14489746 35.05769348 C-26.13147359 37.37346585 -26.10367777 39.68919352 -26.0625 42.00463867 C-26.00004113 45.56015871 -25.9805436 49.11390698 -25.96875 52.66992188 C-25.95041532 54.91929259 -25.92966548 57.16864519 -25.90625 59.41796875 C-25.89775024 60.48564987 -25.88925049 61.55333099 -25.88049316 62.65336609 C-25.86127808 63.63811417 -25.84206299 64.62286224 -25.82226562 65.63745117 C-25.80178162 66.94053474 -25.80178162 66.94053474 -25.78088379 68.26994324 C-25.68793378 70.59198116 -25.68793378 70.59198116 -23.5 72.375 C-21.17724823 72.77547444 -18.84260643 73.1147104 -16.5 73.375 C-16.5 75.025 -16.5 76.675 -16.5 78.375 C-29.37 78.375 -42.24 78.375 -55.5 78.375 C-55.5 76.725 -55.5 75.075 -55.5 73.375 C-54.22125 73.25125 -52.9425 73.1275 -51.625 73 C-48.15209064 72.68457601 -48.15209064 72.68457601 -45.5 70.375 C-45.20703857 67.8666408 -45.20703857 67.8666408 -45.27294922 64.91552734 C-45.27310028 63.77449554 -45.27325134 62.63346375 -45.27340698 61.45785522 C-45.28372955 60.22137238 -45.29405212 58.98488953 -45.3046875 57.7109375 C-45.3075174 56.44859283 -45.31034729 55.18624817 -45.31326294 53.88565063 C-45.32257869 50.52853056 -45.34055165 47.17168088 -45.3626709 43.81463623 C-45.3831245 40.38946878 -45.3922636 36.96427341 -45.40234375 33.5390625 C-45.42443542 26.81763329 -45.45793623 20.09633227 -45.5 13.375 C-48.8 12.715 -52.1 12.055 -55.5 11.375 C-55.5 9.395 -55.5 7.415 -55.5 5.375 C-36.67995444 0.78274487 -36.67995444 0.78274487 -27.5 1.375 C-27.5 5.665 -27.5 9.955 -27.5 14.375 C-26.84 14.375 -26.18 14.375 -25.5 14.375 C-25.5 13.715 -25.5 13.055 -25.5 12.375 C-23.68279604 10.82537785 -21.79394128 9.35919737 -19.875 7.9375 C-18.83085938 7.15503906 -17.78671875 6.37257813 -16.7109375 5.56640625 C-10.95341136 1.63699972 -7.04562067 -0.0429611 0 0 Z " fill="#1A5158" transform="translate(764.5,468.625)"/>
<path d="M0 0 C0.00879936 1.12966438 0.00879936 1.12966438 0.01777649 2.28215027 C0.07574392 9.38870303 0.14784357 16.49494024 0.23571491 23.60117626 C0.28039218 27.25435862 0.31965377 30.90743015 0.34643555 34.56079102 C0.37249545 38.08826179 0.41291592 41.61530546 0.46318626 45.14251137 C0.48792576 47.13927679 0.49789298 49.13620755 0.50764465 51.13310242 C0.53733589 52.96443474 0.53733589 52.96443474 0.56762695 54.83276367 C0.57873001 55.90531906 0.58983307 56.97787445 0.60127258 58.08293152 C1.09509725 61.6957264 2.40196358 64.40196358 5 67 C12.0394187 67.76389296 18.26304014 68.15761101 24.25 64 C24.93578125 63.443125 25.6215625 62.88625 26.328125 62.3125 C28 61 28 61 30 61 C29.67 44.83 29.34 28.66 29 12 C24.05 11.01 24.05 11.01 19 10 C19 8.35 19 6.7 19 5 C19.90621094 4.80664062 20.81242188 4.61328125 21.74609375 4.4140625 C22.96425781 4.15367187 24.18242188 3.89328125 25.4375 3.625 C26.71367188 3.35300781 27.98984375 3.08101563 29.3046875 2.80078125 C32.89317912 2.02314829 36.46776518 1.20092056 40.03515625 0.33203125 C42.37863416 -0.0639839 44.62693824 -0.02071585 47 0 C47.00546844 1.26787102 47.00546844 1.26787102 47.01104736 2.56135559 C47.04889401 10.52209095 47.10570833 18.48241523 47.18390274 26.4428606 C47.22343387 30.53557262 47.25559437 34.62806767 47.27099609 38.72094727 C47.28612605 42.66991588 47.320505 46.61828825 47.36830902 50.56699181 C47.38316092 52.07443755 47.3910432 53.58196841 47.39188385 55.08948708 C47.39424406 57.19938553 47.42124165 59.30762337 47.45410156 61.41723633 C47.46298401 62.61858719 47.47186646 63.81993805 47.48101807 65.05769348 C47.72965499 68.06716451 47.72965499 68.06716451 49.79974365 69.86845398 C52.79993266 71.41138871 55.66742491 71.67956009 59 72 C59 73.32 59 74.64 59 76 C49.03143819 78.58045976 40.24656458 79.38747513 30 79 C30 75.37 30 71.74 30 68 C28.948125 68.79664063 28.948125 68.79664063 27.875 69.609375 C24.94861003 71.78826318 21.98813711 73.90670609 19 76 C18.34515625 76.46921875 17.6903125 76.9384375 17.015625 77.421875 C10.67499746 81.29358562 3.1578526 80.89962082 -4 80 C-9.70001348 77.99174937 -13.2993314 74.40133721 -16 69 C-18.05224605 62.35161301 -18.29343373 55.81945091 -18.30859375 48.91015625 C-18.33371764 46.80663742 -18.35911609 44.70312186 -18.38476562 42.59960938 C-18.41366627 39.31209933 -18.43771399 36.0246454 -18.45629883 32.73706055 C-18.47783347 29.54449124 -18.51721724 26.35252072 -18.55859375 23.16015625 C-18.55876747 21.6758889 -18.55876747 21.6758889 -18.5589447 20.16163635 C-18.57228348 19.2498613 -18.58562225 18.33808624 -18.59936523 17.39868164 C-18.60443588 16.59531876 -18.60950653 15.79195587 -18.61473083 14.96424866 C-18.74186966 14.3160466 -18.86900848 13.66784454 -19 13 C-22.18762365 10.87491756 -24.26512223 10.4979837 -28 10 C-28 8.35 -28 6.7 -28 5 C-24.8236655 4.26360097 -21.6468195 3.52966458 -18.46875 2.80078125 C-16.42477108 2.32891675 -14.38233313 1.85012495 -12.34375 1.35546875 C-11.21453125 1.08669922 -11.21453125 1.08669922 -10.0625 0.8125 C-9.41410156 0.65394531 -8.76570312 0.49539063 -8.09765625 0.33203125 C-5.38656639 -0.09709843 -2.74088433 -0.01982599 0 0 Z " fill="#195056" transform="translate(647,469)"/>
<path d="M0 0 C14.19 0 28.38 0 43 0 C43 1.65 43 3.3 43 5 C40.36 5.66 37.72 6.32 35 7 C35.49903048 12.07977243 36.57751562 15.67011367 39.09765625 20.09765625 C39.7311499 21.22324951 40.36464355 22.34884277 41.01733398 23.50854492 C41.6987877 24.69335096 42.38051406 25.87800023 43.0625 27.0625 C43.74975561 28.27459343 44.43603287 29.48724211 45.12133789 30.70043945 C47.06845089 34.14082315 49.0336141 37.57059787 51 41 C51.92535873 42.62710426 52.8499795 44.25462874 53.7734375 45.8828125 C55.50199232 48.92979693 57.24871084 51.96602476 59 55 C64.37331539 46.42294475 69.52677257 37.75258004 74.43945312 28.90380859 C75.15597073 27.61757372 75.87746118 26.33409836 76.60351562 25.05322266 C77.67318219 23.16610663 78.72871278 21.27171117 79.78125 19.375 C80.40064453 18.26898438 81.02003906 17.16296875 81.65820312 16.0234375 C82.98986332 13.02284073 83.3091855 11.22993787 83 8 C80.36 7.01 77.72 6.02 75 5 C75 3.35 75 1.7 75 0 C85.56 0 96.12 0 107 0 C107 1.65 107 3.3 107 5 C105.07942708 5.61848958 103.15885417 6.23697917 101.23828125 6.85546875 C88.15962264 13.5431598 79.73716761 36.6169684 72.85229492 48.85205078 C71 52 71 52 69.0012207 54.84716797 C63.43964879 63.05008056 62.99435025 70.02959333 63.25219727 79.63916016 C63.31314577 82.02528194 63.31371371 84.40616966 63.30664062 86.79296875 C63.32202602 88.3203517 63.34078144 89.84770528 63.36328125 91.375 C63.36525261 92.43593872 63.36525261 92.43593872 63.36726379 93.51831055 C63.48198525 96.92362265 63.78276957 98.72208306 65.90600586 101.43847656 C68.18619673 103.13884975 69.44289117 103.56285941 72.25 103.75 C73.4875 103.8325 74.725 103.915 76 104 C76 105.65 76 107.3 76 109 C61.48 109 46.96 109 32 109 C32 107.68 32 106.36 32 105 C32.69867187 104.81824219 33.39734375 104.63648438 34.1171875 104.44921875 C35.02726563 104.19785156 35.93734375 103.94648437 36.875 103.6875 C37.77992188 103.44386719 38.68484375 103.20023438 39.6171875 102.94921875 C42.32113319 102.13330148 42.32113319 102.13330148 44 99 C47.69078864 76.42811089 43.39485647 60.94034722 30.25878906 42.32763672 C27.88682755 38.90714044 25.8095516 35.35073292 23.7734375 31.72265625 C23.43746048 31.12435501 23.10148346 30.52605377 22.75532532 29.90962219 C21.77139858 28.14974701 20.7919086 26.38739363 19.8125 24.625 C13.99457492 13.10847052 13.99457492 13.10847052 3.6875 6.1875 C2.470625 5.795625 1.25375 5.40375 0 5 C0 3.35 0 1.7 0 0 Z " fill="#185057" transform="translate(790,438)"/>
<path d="M0 0 C1.34964844 -0.01836914 1.34964844 -0.01836914 2.7265625 -0.03710938 C8.94452733 -0.05051016 14.86452325 0.51792313 20.875 2.1875 C21.875 3.1875 21.875 3.1875 21.98852539 5.04516602 C21.98328857 5.83592529 21.97805176 6.62668457 21.97265625 7.44140625 C21.96943359 8.29541016 21.96621094 9.14941406 21.96289062 10.02929688 C21.95032227 11.37604492 21.95032227 11.37604492 21.9375 12.75 C21.93298828 13.65169922 21.92847656 14.55339844 21.92382812 15.48242188 C21.91200225 17.71751314 21.8955222 19.95247437 21.875 22.1875 C19.895 22.1875 17.915 22.1875 15.875 22.1875 C15.70484375 21.58421875 15.5346875 20.9809375 15.359375 20.359375 C13.42559316 13.96250507 13.42559316 13.96250507 8.875 9.1875 C5.42834258 8.03861419 2.63148095 7.9835653 -1 7.9375 C-2.21429687 7.91171875 -3.42859375 7.8859375 -4.6796875 7.859375 C-8.36441521 8.21030145 -10.20316773 8.96647621 -13.125 11.1875 C-14.70398053 14.34546107 -14.94428171 17.79420636 -14.125 21.1875 C-10.73300196 25.32838072 -7.35975647 27.27117573 -2.4375 29.25 C-1.82245605 29.50330078 -1.20741211 29.75660156 -0.57373047 30.01757812 C2.1763797 31.14369774 4.94414239 32.21313282 7.73046875 33.24609375 C14.83674175 35.90130583 21.37331219 39.06839677 25.375 45.8125 C27.87987417 51.67592743 28.25588921 58.53364271 25.9921875 64.5234375 C21.71840538 71.91057083 14.81604453 77.21874855 6.875 80.1875 C5.27653924 80.52798514 3.67190045 80.84068128 2.0625 81.125 C-1.41089238 81.77775822 -1.88289168 81.87936213 -4.1875 84.8125 C-4.496875 85.59625 -4.80625 86.38 -5.125 87.1875 C-3.2996875 87.373125 -3.2996875 87.373125 -1.4375 87.5625 C2.76178054 88.0966841 6.11462143 89.03414852 9.6875 91.375 C11.66863411 94.39883627 11.35886973 96.67944447 10.875 100.1875 C8.03938718 103.83328792 5.35251737 106.01481688 0.875 107.1875 C-1.4570802 107.26396165 -3.79345878 107.27893299 -6.125 107.1875 C-6.125 105.8675 -6.125 104.5475 -6.125 103.1875 C-4.145 102.1975 -4.145 102.1975 -2.125 101.1875 C-2.31971111 99.23750871 -2.31971111 99.23750871 -3.125 97.1875 C-6.0033089 95.38855694 -8.52204373 94.85834908 -11.875 94.5625 C-12.67421875 94.48773437 -13.4734375 94.41296875 -14.296875 94.3359375 C-15.20179688 94.26246094 -15.20179688 94.26246094 -16.125 94.1875 C-16.125 90.1875 -16.125 90.1875 -14.41015625 88.1171875 C-13.67667969 87.43914062 -12.94320312 86.76109375 -12.1875 86.0625 C-9.25507565 83.42536751 -9.25507565 83.42536751 -7.125 80.1875 C-8.75308594 80.11402344 -8.75308594 80.11402344 -10.4140625 80.0390625 C-11.85939784 79.96398014 -13.30470919 79.88843472 -14.75 79.8125 C-15.46285156 79.7815625 -16.17570313 79.750625 -16.91015625 79.71875 C-17.61269531 79.68007813 -18.31523438 79.64140625 -19.0390625 79.6015625 C-19.9973999 79.55443115 -19.9973999 79.55443115 -20.97509766 79.50634766 C-23.125 79.1875 -23.125 79.1875 -29.125 77.1875 C-29.125 70.2575 -29.125 63.3275 -29.125 56.1875 C-27.145 56.1875 -25.165 56.1875 -23.125 56.1875 C-22.95484375 56.85136719 -22.7846875 57.51523437 -22.609375 58.19921875 C-20.66785774 65.40163437 -20.66785774 65.40163437 -16.125 71.1875 C-10.63780766 74.06827598 -4.16727325 73.72624864 1.875 73.1875 C6.02268199 71.73217299 8.9196253 70.20688133 10.875 66.1875 C11.2967831 62.32896568 11.11136161 58.89658483 9.875 55.1875 C8.15082082 54.07327078 8.15082082 54.07327078 5.875 53.1875 C4.89789062 52.77113281 3.92078125 52.35476563 2.9140625 51.92578125 C1.78742187 51.45527344 0.66078125 50.98476563 -0.5 50.5 C-3.04758808 49.40918842 -5.587722 48.30206492 -8.125 47.1875 C-8.75422363 46.91244629 -9.38344727 46.63739258 -10.03173828 46.35400391 C-18.44026902 42.61857915 -25.84956775 38.7383645 -30.125 30.1875 C-30.95191834 22.30560748 -31.14531338 15.5205666 -26.109375 9.09375 C-18.14782851 1.44565022 -10.56084173 0.00737489 0 0 Z " fill="#1A5258" transform="translate(989.125,468.8125)"/>
<path d="M0 0 C19.47 0 38.94 0 59 0 C59 10.12354389 59 10.12354389 56.46484375 13.8828125 C55.63267334 15.15137085 55.63267334 15.15137085 54.78369141 16.44555664 C54.17444824 17.32977295 53.56520508 18.21398926 52.9375 19.125 C52.00043213 20.53930298 52.00043213 20.53930298 51.04443359 21.98217773 C49.7208617 23.9780741 48.38894847 25.96846069 47.04931641 27.95361328 C43.68575572 32.95367406 40.41115602 38.01138702 37.125 43.0625 C36.17995605 44.50774048 36.17995605 44.50774048 35.21582031 45.98217773 C27.10039359 58.19383506 27.10039359 58.19383506 20 71 C24.56360551 70.97718868 29.12470953 70.89985829 33.6875 70.8125 C34.98107422 70.80669922 36.27464844 70.80089844 37.60742188 70.79492188 C38.85458984 70.76591797 40.10175781 70.73691406 41.38671875 70.70703125 C43.10701294 70.68346558 43.10701294 70.68346558 44.86206055 70.65942383 C48.9222824 69.80618651 50.40369734 68.16832977 53 65 C54.4252512 61.92029418 54.4252512 61.92029418 55.3125 58.6875 C55.63863281 57.61886719 55.96476563 56.55023437 56.30078125 55.44921875 C56.53152344 54.64097656 56.76226563 53.83273437 57 53 C58.65 53 60.3 53 62 53 C62 60.92 62 68.84 62 77 C41.54 77 21.08 77 0 77 C0 67.99955899 0 67.99955899 1.87890625 65.08984375 C2.29817383 64.42154541 2.71744141 63.75324707 3.14941406 63.06469727 C3.61573242 62.36272217 4.08205078 61.66074707 4.5625 60.9375 C5.04557617 60.17945068 5.52865234 59.42140137 6.02636719 58.64038086 C7.66533526 56.08084361 9.33155437 53.54040875 11 51 C12.27560805 49.03441751 13.55031839 47.06825218 14.82421875 45.1015625 C17.34521684 41.21755913 19.87815396 37.34180965 22.421875 33.47265625 C27.72704438 25.38617805 32.88824385 17.20979018 38 9 C33.72929442 8.91307926 29.45881542 8.85963485 25.1875 8.8125 C23.97255859 8.78736328 22.75761719 8.76222656 21.50585938 8.73632812 C20.34248047 8.72666016 19.17910156 8.71699219 17.98046875 8.70703125 C16.90692139 8.6913208 15.83337402 8.67561035 14.72729492 8.65942383 C11.99356652 8.77331262 11.99356652 8.77331262 10.18554688 10.34960938 C8.52432182 12.66218791 7.99280147 14.9338988 7.3125 17.6875 C7.06113281 18.68136719 6.80976562 19.67523438 6.55078125 20.69921875 C6.36902344 21.45847656 6.18726563 22.21773438 6 23 C4.02 23 2.04 23 0 23 C0 15.41 0 7.82 0 0 Z " fill="#195057" transform="translate(553,470)"/>
<path d="M0 0 C5.69041539 5.69041539 8.11915687 10.61456445 8.4375 18.75 C8.07917766 27.50060881 5.37904137 33.68612028 -0.9375 39.75 C-6.54529898 44.21937362 -12.84991424 46.43969534 -20.0859375 46.09375 C-27.75456845 45.06746482 -34.12286898 42.84121053 -39.1875 36.8125 C-44.24798856 30.06946321 -45.19373601 22.82619388 -44.73828125 14.6015625 C-43.72355634 7.62083084 -40.20366671 3.43909697 -35.0625 -1.125 C-23.65241511 -9.31049568 -11.00861787 -7.55493383 0 0 Z " fill="#E09347" transform="translate(367.1875,403.1875)"/>
<path d="M0 0 C1.94474526 22.3022389 1.94474526 22.3022389 -2.3203125 28.21875 C-8.22472935 31.78254125 -15.17211511 33.60067631 -22 32 C-25.55680172 29.89495409 -26.69468936 28.91593192 -28 25 C-28.47974494 20.35984399 -28.72666251 16.3624922 -26.5 12.1875 C-19.79254153 6.31847384 -9.1730087 0 0 0 Z " fill="#F1EFE9" transform="translate(1067,505)"/>
<path d="M0 0 C0.20364742 4.0617589 0.32774825 8.1222056 0.4375 12.1875 C0.49615234 13.33798828 0.55480469 14.48847656 0.61523438 15.67382812 C0.78418485 24.00067309 0.78418485 24.00067309 -1.44873047 26.84619141 C-3.246445 28.15331468 -4.97196442 29.09997275 -7 30 C-7.70253906 30.42539062 -8.40507813 30.85078125 -9.12890625 31.2890625 C-12.9629468 32.74583782 -16.98341907 32.53380816 -21 32 C-24.50252011 29.95686327 -26.77361702 27.90212767 -28 24 C-28.4457736 19.98803758 -28.28489482 17.60694982 -26.5625 13.9375 C-20.56750141 7.06518455 -9.35611953 0 0 0 Z " fill="#F3F1EB" transform="translate(926,505)"/>
<path d="M0 0 C-1.28197266 0.59748047 -1.28197266 0.59748047 -2.58984375 1.20703125 C-3.69457031 1.73683594 -4.79929687 2.26664062 -5.9375 2.8125 C-7.03964844 3.33457031 -8.14179687 3.85664063 -9.27734375 4.39453125 C-12.28740777 5.76794721 -12.28740777 5.76794721 -13 9 C-14.9140625 10.0703125 -14.9140625 10.0703125 -17.625 11.125 C-18.70007813 11.55039062 -19.77515625 11.97578125 -20.8828125 12.4140625 C-22.25518877 12.94275911 -23.62758709 13.47139849 -25 14 C-26.83111377 14.71516186 -28.66181153 15.43138943 -30.4921875 16.1484375 C-33.5197102 17.33364015 -36.54736059 18.51850364 -39.57568359 19.70166016 C-52.99743241 24.94681586 -66.0147995 30.75837078 -79 37 C-79 36.34 -79 35.68 -79 35 C-58.3332447 23.64713563 -37.46620527 13.11696799 -15.8125 3.75 C-14.13607422 3.01390503 -14.13607422 3.01390503 -12.42578125 2.26293945 C-11.38421875 1.82038818 -10.34265625 1.37783691 -9.26953125 0.921875 C-8.34760986 0.52581055 -7.42568848 0.12974609 -6.47583008 -0.27832031 C-3.81890324 -1.05278789 -2.55988751 -0.95018475 0 0 Z " fill="#3E6D79" transform="translate(595,387)"/>
<path d="M0 0 C-1.4741738 2.94834761 -3.42295156 3.03584671 -6.5 4.125 C-14.91073752 7.24043448 -22.92772866 11.1040415 -31 15 C-31 14.34 -31 13.68 -31 13 C-27.3987932 10.9694391 -23.78761457 8.95804122 -20.16625977 6.96362305 C-18.93650276 6.28290808 -17.70956431 5.5970746 -16.4855957 4.90600586 C-14.72320621 3.91211264 -12.94958808 2.93821407 -11.17578125 1.96484375 C-10.11270752 1.3730835 -9.04963379 0.78132324 -7.9543457 0.17163086 C-4.71418287 -1.11334901 -3.26620901 -1.05881149 0 0 Z " fill="#5B8994" transform="translate(547,409)"/>
<path d="M0 0 C1.5625 1.8125 1.5625 1.8125 3 4 C2.67 4.99 2.34 5.98 2 7 C3.32 7.33 4.64 7.66 6 8 C4.35 8 2.7 8 1 8 C1 7.01 1 6.02 1 5 C0.030625 5.78375 -0.93875 6.5675 -1.9375 7.375 C-2.48277344 7.81585937 -3.02804687 8.25671875 -3.58984375 8.7109375 C-5.13266437 9.9666391 -5.13266437 9.9666391 -6 12 C-8.0625 12.625 -8.0625 12.625 -10 13 C-8.60366893 9.81440048 -6.95442507 7.76056155 -4.4375 5.375 C-1.85984611 2.95478041 -1.85984611 2.95478041 0 0 Z " fill="#35696E" transform="translate(982,549)"/>
<path d="M0 0 C0.33 0 0.66 0 1 0 C1.02719556 2.37507855 1.04693247 4.74983964 1.0625 7.125 C1.07087891 7.79015625 1.07925781 8.4553125 1.08789062 9.140625 C1.10782292 13.20681354 0.78890161 17.0120092 0 21 C-2.46278801 18.53721199 -2.99771255 16.29323018 -4 13 C-3.01 12.67 -2.02 12.34 -1 12 C-0.67 8.04 -0.34 4.08 0 0 Z " fill="#3E757A" transform="translate(346,505)"/>
<path d="M0 0 C1.44319692 0.90767102 2.87934106 1.82656106 4.3125 2.75 C5.11300781 3.26046875 5.91351563 3.7709375 6.73828125 4.296875 C9.00368861 6.00277761 10.42684167 7.65808145 12 10 C10.68 10.33 9.36 10.66 8 11 C6.66072279 9.54712339 5.32873153 8.08752741 4 6.625 C3.2575 5.81289063 2.515 5.00078125 1.75 4.1640625 C0 2 0 2 0 0 Z " fill="#DEE7E4" transform="translate(307,477)"/>
<path d="M0 0 C2 1 2 1 4 3 C4.1953125 5.3828125 4.1953125 5.3828125 4.125 8.125 C4.10695313 9.03507813 4.08890625 9.94515625 4.0703125 10.8828125 C4.04710937 11.58148437 4.02390625 12.28015625 4 13 C1.27835324 10.27835324 0.89427524 7.70485455 0 4 C0 2.68 0 1.36 0 0 Z " fill="#255E64" transform="translate(352,545)"/>
<path d="M0 0 C0.33 1.32 0.66 2.64 1 4 C-1.31 4.33 -3.62 4.66 -6 5 C-6 4.01 -6 3.02 -6 2 C-2.25 0 -2.25 0 0 0 Z " fill="#46737F" transform="translate(558,401)"/>
<path d="M0 0 C1.65 0 3.3 0 5 0 C5 0.99 5 1.98 5 3 C3.02 3.33 1.04 3.66 -1 4 C-0.67 2.68 -0.34 1.36 0 0 Z " fill="#2F6270" transform="translate(559,400)"/>
<path d="M0 0 C0.66 0.33 1.32 0.66 2 1 C0.02 3.31 -1.96 5.62 -4 8 C-4.33 7.34 -4.66 6.68 -5 6 C-5.66 5.67 -6.32 5.34 -7 5 C-4.69 3.35 -2.38 1.7 0 0 Z " fill="#D1DDDB" transform="translate(395,464)"/>
<path d="M0 0 C0 0.99 0 1.98 0 3 C-0.99 3.33 -1.98 3.66 -3 4 C-3 3.01 -3 2.02 -3 1 C-3.99 0.67 -4.98 0.34 -6 0 C-3.50907189 -1.24546405 -2.58919267 -0.7767578 0 0 Z " fill="#3B6A76" transform="translate(567,399)"/>
</svg>
